<?xml version="1.0" encoding="utf-8"?>
<!-- Generator: Adobe Illustrator 23.0.1, SVG Export Plug-In . SVG Version: 6.00 Build 0)  -->
<svg version="1.1" id="Layer_1" xmlns="http://www.w3.org/2000/svg" xmlns:xlink="http://www.w3.org/1999/xlink" x="0px" y="0px"
	 viewBox="0 0 100 100" style="enable-background:new 0 0 100 100;" xml:space="preserve">
<style type="text/css">
	.st0{fill-rule:evenodd;clip-rule:evenodd;}
</style>
<path class="st0" d="M84.6,29.3L54.5,11.4V23c0,0-1.5,0-2.8,0c-7.5,0-12.2,5.8-12.2,11.8c0,3.5,0,23.3,0,23.3H28.2v3.5h26.2v26.1
	l30.1-17.9V29.3L84.6,29.3z M17.4,69.6l30.1,17.9V68.7H21.2v-18h11.3c0,0,0-9.3,0-16.3c0-10,8.5-17.3,14.9-18.3v-4.7l-30.1,18
	L17.4,69.6L17.4,69.6z M10.4,25.2L51,1l40.5,24.1v48.7L51,98L10.4,73.8V25.2L10.4,25.2z"/>
</svg>
