<?xml version="1.0" encoding="utf-8"?>
<!-- Generator: Adobe Illustrator 23.0.1, SVG Export Plug-In . SVG Version: 6.00 Build 0)  -->
<svg version="1.1" id="Layer_1" xmlns="http://www.w3.org/2000/svg" xmlns:xlink="http://www.w3.org/1999/xlink" x="0px" y="0px"
	 viewBox="0 0 100 100" style="enable-background:new 0 0 100 100;" xml:space="preserve">
<g>
	<path d="M97.5,20.7c-6.2-6.2-14.5-9.9-23.3-10.3c-3.9-0.2-7.8,0.3-11.5,1.3c-3.8-1-8-1.6-12.7-1.6c-4.7,0-8.9,0.5-12.7,1.5
		c-3.7-1.1-7.6-1.5-11.5-1.3c-8.8,0.4-17,4.1-23.3,10.3c-0.6,0.6-0.7,1.6-0.2,2.3l7.6,11.5c0.3,0.5,0.9,0.8,1.5,0.8
		c0.1,0,0.2,0,0.3,0c0.7-0.1,1.3-0.7,1.5-1.4l0.2-0.6l1.8,3c-1,4.5-1.4,9.6-1.4,15.3c0,5.4,1.2,9.7,3.8,13.5c2.2,3.2,5.3,5.9,9,8.9
		v7.5c0,3.8,3.1,6.9,6.9,6.9c1.1,0,2.1-0.2,3-0.7l9.2-4.7c1.4,0.2,2.8,0.4,4.3,0.4c1.5,0,2.9-0.1,4.4-0.4l9.2,4.7
		c0.9,0.4,1.9,0.7,2.9,0.7c3.8,0,6.9-3.1,6.9-6.9v-7.5c3.8-3,6.8-5.7,9-8.9c2.6-3.8,3.8-8.1,3.8-13.5c0-5.7-0.5-10.8-1.5-15.3l1.8-3
		l0.2,0.6c0.2,0.7,0.8,1.2,1.5,1.4c0.1,0,0.2,0,0.3,0c0.6,0,1.2-0.3,1.5-0.8L97.7,23C98.2,22.3,98.1,21.3,97.5,20.7z M6.2,22.3
		c3.7-3.3,8-5.8,12.8-7.1c-3.9,3.8-6.8,8.6-8.3,13.8L6.2,22.3z M14.7,28.5c2.1-6,6.3-11.1,11.7-14.5c1.5-0.1,2.9,0,4.4,0.1
		c-4.4,2.2-7.9,5.4-10.6,9.5c-1.5,2.3-2.7,4.9-3.7,7.7L14.7,28.5z M41,78l0.3-2.3c0.4-2.5,1.8-4.7,3.8-6c3.2-0.7,6.6-0.7,9.7,0
		c2,1.4,3.4,3.5,3.8,6l0.3,2.2C53.2,80.4,46.8,80.4,41,78z M50,51.5c-1.5,0-2.9,0.4-4,0.8c-0.1,0-0.3,0.1-0.4,0.1
		c0.2-2.3,2.1-4.1,4.4-4.1s4.2,1.8,4.4,4.1c-0.2,0-0.3-0.1-0.4-0.1C52.9,51.9,51.5,51.5,50,51.5z M69.8,81.6c0,1.8-1.4,3.2-3.2,3.2
		c-1.6,0-3-1.2-3.2-2.8l-1-6.9c-0.5-3.6-2.6-6.8-5.7-8.8l-0.1,0c-2.9-1.8-4.7-4.9-4.7-8.3v-2.6c0.3,0.1,0.7,0.2,1,0.3
		c1.4,0.4,2.8,0.9,4,0c1.2-0.9,1.2-2.5,1.2-3c0-4.5-3.6-8.1-8.1-8.1s-8.1,3.6-8.1,8.1c0,0.5,0,2.1,1.2,3c0.5,0.4,1.1,0.5,1.7,0.5
		c0.8,0,1.6-0.3,2.4-0.5c0.3-0.1,0.6-0.2,1-0.3v2.6c0,3.4-1.8,6.5-4.7,8.3l-0.1,0c-3.1,1.9-5.2,5.1-5.7,8.8l-1,6.9
		c-0.2,1.6-1.6,2.8-3.2,2.8c-1.8,0-3.2-1.4-3.2-3.2V61.7C30.2,50.8,39.1,42,50,42s19.8,8.9,19.8,19.8L69.8,81.6L69.8,81.6z
		 M31.1,44.9l-2.3-0.8c0,0,0,0,0,0c1-0.6,2-1.1,3-1.6c0.8-0.4,1.5-0.7,2-0.8L33,44c-0.1,0.4-0.4,0.7-0.8,0.8
		C31.9,45,31.5,45,31.1,44.9z M67.8,44.9c-0.4-0.2-0.6-0.5-0.8-0.8l-0.8-2.4c0.5,0.2,1.1,0.4,2,0.8c1,0.5,2,1,3,1.6c0,0,0,0,0,0
		l-2.3,0.8C68.5,45,68.1,45,67.8,44.9z M73.5,69.3v-7.6c0-4.9-1.5-9.4-4.1-13.2c0.3,0,0.5-0.1,0.8-0.2l2.1-0.8l4.3-1
		c0.8-0.2,1.3-0.8,1.4-1.6c0.1-0.8-0.3-1.5-1-1.9c-0.5-0.2-1.2-0.7-2.1-1.2c-6-3.5-9.2-4.9-11.3-4.1c-0.8,0.3-1.4,1-1.6,1.9
		c-0.1,0.4-0.1,0.8,0,1.1l0.3,0.9c-3.6-2.2-7.8-3.5-12.3-3.5s-8.7,1.3-12.3,3.5l0.3-0.9c0.1-0.4,0.1-0.7,0-1.1
		c-0.2-0.9-0.8-1.5-1.6-1.9c-2.2-0.9-5.4,0.6-11.3,4.1c-0.9,0.5-1.6,1-2.1,1.2c-0.7,0.3-1.1,1.1-1,1.9c0.1,0.8,0.7,1.4,1.4,1.6
		l4.3,1l2.1,0.8c0.2,0.1,0.5,0.2,0.8,0.2c-2.6,3.8-4.1,8.3-4.1,13.2v7.6c-6-5.1-9.1-9.1-9.1-17.6c0-11.4,1.9-19.9,5.9-26
		c5.2-8,13.9-11.9,26.7-11.9c6.6,0,12.3,1.1,16.8,3.3c4,2,7.3,4.8,9.7,8.5c4,6.1,6,14.6,6,26C82.6,60.2,79.5,64.2,73.5,69.3z
		 M79.7,23.7c-2.7-4.1-6.2-7.3-10.6-9.5c1.5-0.2,3-0.2,4.5-0.2c5.4,3.3,9.6,8.5,11.7,14.5l-1.8,3C82.4,28.6,81.2,26,79.7,23.7z
		 M89.3,29.1c-1.5-5.3-4.4-10-8.3-13.8c4.7,1.3,9.1,3.7,12.8,7.1L89.3,29.1z"/>
	<path d="M67,30.1c-2.6,1.3-5.3,2.2-8.1,2.7c-1,0.2-1.9-0.1-2.7-0.7c-0.8-0.6-1.2-1.6-1.2-2.6c0-1-0.8-1.8-1.8-1.8s-1.8,0.8-1.8,1.8
		c0,2.1,0.9,4.1,2.5,5.4c1.3,1.1,2.8,1.6,4.5,1.6c0.4,0,0.8,0,1.3-0.1c3.1-0.6,6.2-1.6,9.1-3c0.9-0.4,1.3-1.6,0.8-2.5
		C69,30,67.9,29.6,67,30.1z"/>
	<path d="M46.9,27.6c-1,0-1.8,0.8-1.8,1.8c0,1-0.4,1.9-1.2,2.6c-0.8,0.6-1.7,0.9-2.7,0.7c-2.8-0.5-5.5-1.4-8.1-2.7
		c-0.9-0.4-2-0.1-2.5,0.8c-0.4,0.9-0.1,2,0.8,2.5c2.9,1.4,5.9,2.4,9.1,3c0.4,0.1,0.9,0.1,1.3,0.1c1.6,0,3.2-0.6,4.5-1.6
		c1.6-1.3,2.5-3.3,2.5-5.4C48.7,28.5,47.9,27.6,46.9,27.6z"/>
	<path d="M34.3,26l5.5,3.5c0.3,0.2,0.7,0.3,1,0.3c0.6,0,1.2-0.3,1.6-0.9c0.5-0.9,0.3-2-0.6-2.5l-5.5-3.5c-0.9-0.5-2-0.3-2.5,0.6
		C33.2,24.3,33.4,25.5,34.3,26z"/>
	<path d="M59.2,29.8c0.3,0,0.7-0.1,1-0.3l5.5-3.5c0.9-0.5,1.1-1.7,0.6-2.5c-0.5-0.9-1.7-1.1-2.5-0.6l-5.5,3.5
		c-0.9,0.5-1.1,1.7-0.6,2.5C58,29.5,58.6,29.8,59.2,29.8z"/>
</g>
</svg>
