<?xml version="1.0" encoding="utf-8"?>
<!-- Generator: Adobe Illustrator 23.0.1, SVG Export Plug-In . SVG Version: 6.00 Build 0)  -->
<svg version="1.1" id="Layer_1" xmlns="http://www.w3.org/2000/svg" xmlns:xlink="http://www.w3.org/1999/xlink" x="0px" y="0px"
	 viewBox="0 0 100 100" style="enable-background:new 0 0 100 100;" xml:space="preserve">
<style type="text/css">
	.st0{fill:#FF2626;}
</style>
<g>
	<path class="st0" d="M58.8,69.6c-0.4,0.4-1,0.9-1.7,1.4s-1.5,0.9-2.5,1.2c-0.9,0.3-2,0.5-3.2,0.5s-2.5-0.2-3.9-0.6
		c-1.4-0.5-3-1.2-4.6-2.3s-3.5-2.6-5.4-4.5L24,51.8c-1.9-1.9-3.4-3.7-4.4-5.4c-1-1.7-1.8-3.2-2.2-4.7s-0.5-2.8-0.4-4
		s0.4-2.3,0.8-3.4s1-1.9,1.6-2.7c0.6-0.8,1.2-1.5,1.9-2.1c1.5-1.5,3.1-2.6,4.5-3.3s2.9-0.9,4.3-0.8s2.7,0.5,4,1.1
		c1.3,0.7,2.5,1.6,3.6,2.7c0.8,0.8,1.5,1.6,2.1,2.4c0.6,0.8,1.2,1.7,1.9,2.7L37.1,39l-1.8-1.8c-4.2-4.2-7.4-5.1-9.6-2.9
		c-0.6,0.6-1,1.2-1.3,1.9c-0.2,0.7-0.3,1.4-0.1,2.2c0.2,0.8,0.6,1.7,1.3,2.6c0.7,1,1.6,2,2.8,3.3l17.2,17.2c1.2,1.2,2.2,2.1,3.2,2.8
		c0.9,0.6,1.8,1.1,2.5,1.2s1.5,0.2,2.1-0.1c0.6-0.2,1.3-0.7,1.9-1.3c0.6-0.6,1-1.4,1.1-2.2s0-1.6-0.2-2.5c-0.3-0.9-0.7-1.8-1.4-2.7
		s-1.4-1.9-2.4-2.8l-5-5l-3,3l-3.8-3.8l8.6-8.6l19.3,19.3l-3.8,3.8l-4.2-3c0.7,2.1,0.9,4,0.5,5.5C60.9,66.8,60.1,68.3,58.8,69.6z"/>
	<path class="st0" d="M82.8,45.5c-0.6,0.6-1.3,1.2-2.1,1.8S79,48.4,78,48.8s-2.1,0.6-3.3,0.7c-1.2,0.1-2.5-0.1-4-0.5s-3-1.2-4.7-2.3
		s-3.5-2.6-5.4-4.5L47.1,28.7c-1.9-1.9-3.4-3.7-4.5-5.4s-1.8-3.2-2.2-4.6C40,17.3,39.9,16,40,14.8s0.4-2.3,0.8-3.3s0.9-1.9,1.5-2.7
		s1.2-1.5,1.8-2.1c0.6-0.6,1.2-1.2,2-1.8s1.6-1.1,2.6-1.5c1-0.4,2-0.7,3.2-0.8c1.2-0.1,2.5,0,3.9,0.5s3,1.2,4.7,2.2
		C62.2,6.4,64,7.9,66,9.9l13.5,13.5c1.9,1.9,3.4,3.7,4.4,5.3s1.8,3.2,2.2,4.7c0.4,1.4,0.6,2.8,0.5,4s-0.3,2.4-0.7,3.4
		c-0.4,1-0.8,1.9-1.4,2.7C83.9,44.2,83.4,44.9,82.8,45.5z M78.5,41.1c0.6-0.6,1-1.2,1.2-1.8s0.2-1.3,0-2c-0.2-0.8-0.6-1.6-1.3-2.5
		s-1.6-2-2.7-3.2L58.4,14.3c-1.2-1.2-2.3-2.2-3.3-2.8c-1-0.7-1.8-1.1-2.6-1.3s-1.5-0.2-2.1,0c-0.6,0.2-1.2,0.6-1.8,1.2
		c-0.6,0.6-1,1.2-1.2,1.8c-0.2,0.6-0.2,1.3,0,2.1c0.2,0.8,0.7,1.6,1.3,2.6s1.6,2,2.8,3.3l17.3,17.3c1.2,1.2,2.2,2.1,3.2,2.7
		s1.8,1.1,2.5,1.2c0.8,0.2,1.4,0.2,2.1-0.1C77.3,42.1,77.9,41.7,78.5,41.1z"/>
</g>
<g>
	<rect x="32" y="88.6" width="56.3" height="3.3"/>
	<polygon points="36.5,82.2 15.3,90.3 36.5,98.3 	"/>
</g>
</svg>
