<?xml version="1.0" encoding="utf-8"?>
<!-- Generator: Adobe Illustrator 23.0.1, SVG Export Plug-In . SVG Version: 6.00 Build 0)  -->
<svg version="1.1" id="Layer_1" xmlns="http://www.w3.org/2000/svg" xmlns:xlink="http://www.w3.org/1999/xlink" x="0px" y="0px"
	 viewBox="0 0 100 100" style="enable-background:new 0 0 100 100;" xml:space="preserve">
<path d="M48.8,22v15.4L30,47.3c-1.3,0.7-3.7,1.3-5.3,1.3H0.7V35h20.4c1.7,0,4.2-0.6,5.7-1.4L48.8,22z"/>
<path d="M0.7,69V55.4l25.5,0c1.7,0,4.2-0.6,5.7-1.4l33.5-17.7c1.3-0.7,3.7-1.3,5.3-1.3h29.1v13.6l-25.5,0c-1.7,0-4.2,0.6-5.7,1.4
	L35.1,67.7c-1.3,0.7-3.7,1.3-5.3,1.3H0.7z"/>
<path d="M51.7,82V66.6l18.8-9.9c1.3-0.7,3.7-1.3,5.3-1.3l24.1,0V69H79.4c-1.7,0-4.2,0.6-5.7,1.4L51.7,82z"/>
</svg>
